HIERARCHY
ROOT Hips
{
    OFFSET 0.000000 0.000000 0.000000
    CHANNELS 6 Xposition Yposition Zposition Zrotation Xrotation Yrotation
    JOINT Spine
    {
        OFFSET -0.000000 7.236184 0.000000
        CHANNELS 3 Zrotation Xrotation Yrotation
        JOINT Spine1
        {
            OFFSET -0.000000 20.420147 0.000000
            CHANNELS 3 Zrotation Xrotation Yrotation
            JOINT Neck
            {
                OFFSET -0.000000 20.336288 1.848754
                CHANNELS 3 Zrotation Xrotation Yrotation
                JOINT Head
                {
                    OFFSET -0.000000 12.354461 -1.764923
                    CHANNELS 3 Zrotation Xrotation Yrotation
                    End Site
                    {
                        OFFSET -0.000000 22.061537 0.000000
                    }
                }
            }
            JOINT LeftShoulder
            {
                OFFSET 3.573296 18.396038 -0.314103
                CHANNELS 3 Zrotation Xrotation Yrotation
                JOINT LeftArm
                {
                    OFFSET 10.880760 0.000000 0.000000
                    CHANNELS 3 Zrotation Xrotation Yrotation
                    JOINT LeftForeArm
                    {
                        OFFSET 27.185530 0.000000 0.000000
                        CHANNELS 3 Zrotation Xrotation Yrotation
                        JOINT LeftHand
                        {
                            OFFSET 27.825975 0.000000 0.000000
                            CHANNELS 3 Zrotation Xrotation Yrotation
                            End Site
                            {
                                OFFSET 13.236923 0.000000 0.000000
                            }
                        }
                    }
                }
            }
            JOINT RightShoulder
            {
                OFFSET -3.474926 18.396038 -0.314103
                CHANNELS 3 Zrotation Xrotation Yrotation
                JOINT RightArm
                {
                    OFFSET -10.880760 0.000000 0.000000
                    CHANNELS 3 Zrotation Xrotation Yrotation
                    JOINT RightForeArm
                    {
                        OFFSET -27.185530 0.000000 0.000000
                        CHANNELS 3 Zrotation Xrotation Yrotation
                        JOINT RightHand
                        {
                            OFFSET -27.825975 0.000000 0.000000
                            CHANNELS 3 Zrotation Xrotation Yrotation
                            End Site
                            {
                                OFFSET -13.236923 0.000000 0.000000
                            }
                        }
                    }
                }
            }
        }
    }
    JOINT LeftUpLeg
    {
        OFFSET 8.824615 0.000000 0.000000
        CHANNELS 3 Zrotation Xrotation Yrotation
        JOINT LeftLeg
        {
            OFFSET -0.000000 -35.111282 0.000000
            CHANNELS 3 Zrotation Xrotation Yrotation
            JOINT LeftFoot
            {
                OFFSET -0.000000 -42.324711 0.000000
                CHANNELS 3 Zrotation Xrotation Yrotation
                JOINT LeftToeBase
                {
                    OFFSET -0.000000 -5.735999 13.236923
                    CHANNELS 3 Zrotation Xrotation Yrotation
                    End Site
                    {
                        OFFSET -0.000000 0.000000 3.529846
                    }
                }
            }
        }
    }
    JOINT RightUpLeg
    {
        OFFSET -8.824615 0.000000 0.000000
        CHANNELS 3 Zrotation Xrotation Yrotation
        JOINT RightLeg
        {
            OFFSET -0.000000 -35.111282 0.000000
            CHANNELS 3 Zrotation Xrotation Yrotation
            JOINT RightFoot
            {
                OFFSET -0.000000 -42.324711 0.000000
                CHANNELS 3 Zrotation Xrotation Yrotation
                JOINT RightToeBase
                {
                    OFFSET -0.000000 -5.735999 13.236923
                    CHANNELS 3 Zrotation Xrotation Yrotation
                    End Site
                    {
                        OFFSET -0.000000 0.000000 3.529846
                    }
                }
            }
        }
    }
}
MOTION
Frames:    4
Frame Time:    0.008333
-6.625305    81.691170    112.023071    -0.157263    -4.661811    -158.171188    -4.537297    -13.382401    0.018411    -1.621868    8.085733    0.665568    0.741327    11.476145    -8.147931    20.620333    -1.960317    -5.217251    7.347998    8.702621    -13.575927    -37.103252    29.936462    -67.248840    9.962444    -33.219273    -114.935104    23.518353    -17.279026    9.347374    -2.148796    8.566185    4.381540    49.681614    -0.955458    45.365860    -9.284219    -36.492123    120.848877    -12.553597    -21.601292    -5.477453    5.106535    -15.867199    -4.515738    0.652253    19.837626    -3.164885    -7.985428    -9.189488    -10.823506    0.218982    -2.981882    -0.244077    -9.199533    0.790429    -8.620202    13.214258    14.095416    -17.866686    0.000000    0.000000    0.000000    0.000000    0.000000    0.000000    
-6.605990    81.682228    111.992470    -0.106722    -4.655857    -158.285004    -4.511525    -13.390646    0.019871    -1.622084    8.061330    0.664134    0.748238    11.486413    -8.158568    20.643593    -1.955695    -5.225661    7.351393    8.705150    -13.538781    -37.129559    29.952694    -67.227081    9.920368    -33.183105    -115.013405    23.515673    -17.284624    9.322590    -2.152547    8.552497    4.411867    49.726276    -0.927256    45.393883    -9.239298    -36.503948    120.863426    -12.716961    -21.672234    -5.538821    5.277970    -15.898359    -4.162554    0.627085    19.944397    -2.900197    -8.047307    -9.173145    -10.820101    0.290202    -2.745788    -0.323314    -9.120981    0.782848    -8.653740    13.162659    14.082479    -17.805355    0.000000    0.000000    0.000000    0.000000    0.000000    0.000000    
-6.587349    81.673141    111.961639    -0.057082    -4.648934    -158.398132    -4.486033    -13.398708    0.020586    -1.622530    8.038538    0.661803    0.754522    11.494854    -8.168447    20.666821    -1.949635    -5.233525    7.354303    8.707451    -13.501575    -37.155132    29.968094    -67.206619    9.879669    -33.149044    -115.089386    23.514111    -17.291216    9.298328    -2.154881    8.540067    4.442421    49.770496    -0.898813    45.422085    -9.194952    -36.514359    120.878769    -12.876077    -21.740515    -5.598623    5.447001    -15.926722    -3.811306    0.604449    20.049307    -2.649835    -8.109348    -9.153165    -10.816230    0.359358    -2.503899    -0.400177    -9.043731    0.777387    -8.685531    13.112471    14.069128    -17.744173    0.000000    0.000000    0.000000    0.000000    0.000000    0.000000    
-6.569621    81.663582    111.929665    -0.008154    -4.639729    -158.512238    -4.460427    -13.406228    0.019631    -1.623598    8.018071    0.657957    0.760080    11.500199    -8.177050    20.689932    -1.940977    -5.240541    7.356474    8.709834    -13.463206    -37.179714    29.982132    -67.188759    9.840729    -33.118484    -115.162766    23.514490    -17.299713    9.274877    -2.154765    8.529557    4.473967    49.815018    -0.869125    45.451084    -9.150829    -36.522182    120.896172    -13.030950    -21.805033    -5.656061    5.614590    -15.950778    -3.457484    0.585103    20.152655    -2.418140    -8.171958    -9.126250    -10.813636    0.425033    -2.251941    -0.473088    -8.967418    0.776215    -8.713526    13.064546    14.054109    -17.681738    0.000000    0.000000    0.000000    0.000000    0.000000    0.000000    
